<?xml version="1.0" encoding="utf-8"?>
<!-- Generator: Adobe Illustrator 19.0.0, SVG Export Plug-In . SVG Version: 6.00 Build 0)  -->
<svg version="1.2" baseProfile="tiny" id="Layer_1" xmlns="http://www.w3.org/2000/svg" xmlns:xlink="http://www.w3.org/1999/xlink"
	 x="0px" y="0px" width="129.4px" height="185px" viewBox="0 0 129.4 185" xml:space="preserve">
<g id="XMLID_15_">
	<g id="XMLID_95_">
		<g id="XMLID_101_">
			<path id="XMLID_145_" fill="#FACE09" d="M20.3,135.3c0.3,0,0.6-0.1,0.9-0.3c0.5-0.3,0.7-0.9,0.6-1.5l-0.5-2.9l2.1-2.1
				c0.4-0.4,0.6-1,0.4-1.6c-0.2-0.6-0.7-1-1.2-1l-2.9-0.4l-1.3-2.6c-0.3-0.5-0.8-0.9-1.4-0.9c0,0,0,0,0,0c-0.6,0-1.1,0.3-1.4,0.9
				l-1.3,2.6l-2.9,0.4c-0.6,0.1-1.1,0.5-1.2,1c-0.2,0.6,0,1.2,0.4,1.6l2.1,2.1l-0.5,2.9c-0.1,0.6,0.1,1.2,0.6,1.5
				c0.5,0.3,1.1,0.4,1.6,0.1l2.6-1.4l2.6,1.4C19.8,135.3,20.1,135.3,20.3,135.3z"/>
			<path id="XMLID_113_" fill="#FACE09" d="M28.6,153l0.8-2.8c0.2-0.6,0-1.2-0.5-1.6c-0.4-0.4-1.1-0.5-1.6-0.3l-2.7,1.1l-2.4-1.6
				c-0.5-0.3-1.1-0.3-1.6-0.1c-0.5,0.3-0.8,0.8-0.8,1.4l0.2,2.9l-2.3,1.8c-0.5,0.4-0.7,0.9-0.6,1.5c0.1,0.6,0.6,1,1.1,1.2l2.9,0.7
				l1,2.8c0.2,0.6,0.7,0.9,1.3,1c0.1,0,0.1,0,0.2,0c0.5,0,1-0.3,1.3-0.7l1.6-2.5l2.9-0.1c0.6,0,1.1-0.4,1.3-0.9
				c0.2-0.5,0.2-1.2-0.2-1.6L28.6,153z"/>
			<path id="XMLID_112_" fill="#FACE09" d="M48.8,169.8l-2.8-1l-0.7-2.8c-0.1-0.6-0.6-1-1.2-1.1c-0.6-0.1-1.2,0.1-1.5,0.6l-1.8,2.3
				l-2.9-0.2c-0.6,0-1.1,0.3-1.4,0.8c-0.3,0.5-0.3,1.1,0.1,1.6l1.6,2.4l-1.1,2.7c-0.2,0.5-0.1,1.2,0.3,1.6c0.4,0.4,1,0.6,1.6,0.5
				l2.8-0.8l2.3,1.9c0.3,0.2,0.6,0.4,1,0.4c0.2,0,0.4,0,0.6-0.1c0.5-0.2,0.9-0.8,0.9-1.3l0.1-2.9l2.5-1.6c0.5-0.3,0.8-0.9,0.7-1.5
				C49.7,170.5,49.3,170,48.8,169.8z"/>
			<path id="XMLID_111_" fill="#FACE09" d="M73.4,173.9c-0.3-0.5-0.9-0.7-1.5-0.6l-2.9,0.5l-2.1-2.1c-0.4-0.4-1-0.6-1.6-0.4
				c-0.6,0.2-1,0.7-1,1.2l-0.4,2.9l-2.6,1.3c-0.5,0.3-0.9,0.8-0.9,1.4s0.3,1.1,0.9,1.4l2.6,1.3l0.4,2.9c0.1,0.6,0.5,1.1,1,1.2
				c0.2,0.1,0.3,0.1,0.5,0.1c0.4,0,0.8-0.2,1.1-0.5l2.1-2.1l2.9,0.5c0.6,0.1,1.2-0.1,1.5-0.6c0.3-0.5,0.4-1.1,0.1-1.6l-1.4-2.6
				l1.4-2.6C73.8,175,73.8,174.3,73.4,173.9z"/>
			<path id="XMLID_110_" fill="#FACE09" d="M98.8,170.3l-2.5-1.6l-0.1-2.9c0-0.6-0.4-1.1-0.9-1.3c-0.5-0.2-1.2-0.2-1.6,0.2l-2.3,1.9
				l-2.8-0.8c-0.6-0.2-1.2,0-1.6,0.5c-0.4,0.4-0.5,1-0.3,1.6l1.1,2.7l-1.6,2.4c-0.3,0.5-0.3,1.1-0.1,1.6c0.3,0.5,0.8,0.8,1.4,0.8
				l2.9-0.2l1.8,2.3c0.3,0.4,0.7,0.6,1.2,0.6c0.1,0,0.2,0,0.3,0c0.6-0.1,1-0.5,1.2-1.1l0.7-2.9l2.8-1c0.6-0.2,0.9-0.7,1-1.3
				C99.6,171.2,99.3,170.6,98.8,170.3z"/>
			<path id="XMLID_108_" fill="#FACE09" d="M115.5,148.6l-2.9-0.1L111,146c-0.3-0.5-0.9-0.8-1.5-0.7c-0.6,0.1-1.1,0.4-1.3,1l-1,2.8
				l-2.9,0.7c-0.6,0.1-1,0.6-1.1,1.2c-0.1,0.6,0.1,1.2,0.6,1.5l2.3,1.8l-0.2,2.9c0,0.6,0.3,1.1,0.8,1.4c0.2,0.1,0.5,0.2,0.8,0.2
				c0.3,0,0.6-0.1,0.9-0.3l2.4-1.6l2.7,1.1c0.5,0.2,1.2,0.1,1.6-0.3c0.4-0.4,0.6-1,0.5-1.6l-0.8-2.8l1.9-2.3
				c0.4-0.5,0.5-1.1,0.2-1.6C116.6,149,116.1,148.7,115.5,148.6z"/>
			<path id="XMLID_107_" fill="#FACE09" d="M122.9,128.1l-2.1-2.1l0.5-2.9c0.1-0.6-0.1-1.2-0.6-1.5c-0.5-0.3-1.1-0.4-1.6-0.1
				l-2.6,1.4l-2.6-1.4c-0.5-0.3-1.1-0.2-1.6,0.1c-0.5,0.3-0.7,0.9-0.6,1.5l0.5,2.9l-2.1,2.1c-0.4,0.4-0.6,1-0.4,1.6
				c0.2,0.6,0.7,1,1.2,1l2.9,0.4l1.3,2.6c0.3,0.5,0.8,0.9,1.4,0.9c0,0,0,0,0,0c0.6,0,1.1-0.3,1.4-0.9l1.3-2.6l2.9-0.4
				c0.6-0.1,1.1-0.5,1.2-1C123.5,129.1,123.3,128.5,122.9,128.1z"/>
			<path id="XMLID_106_" fill="#FACE09" d="M104.1,106.5c-0.2,0.6,0,1.2,0.5,1.6c0.4,0.4,1.1,0.5,1.6,0.3l2.7-1.1l2.4,1.6
				c0.3,0.2,0.6,0.3,0.8,0.3c0.3,0,0.5-0.1,0.8-0.2c0.5-0.3,0.8-0.8,0.8-1.4l-0.2-2.9l2.3-1.8c0.5-0.4,0.7-0.9,0.5-1.5
				c-0.1-0.6-0.6-1-1.1-1.2l-2.9-0.7l-1-2.8c-0.2-0.6-0.7-0.9-1.3-1c-0.6-0.1-1.1,0.2-1.5,0.7l-1.6,2.5l-2.9,0.1
				c-0.6,0-1.1,0.4-1.3,0.9c-0.2,0.5-0.2,1.2,0.2,1.6l1.9,2.3L104.1,106.5z"/>
			<path id="XMLID_105_" fill="#FACE09" d="M88.2,90.7c0.1,0.6,0.6,1,1.2,1.1c0.1,0,0.2,0,0.3,0c0.5,0,0.9-0.2,1.2-0.6l1.8-2.3
				l2.9,0.2c0.6,0,1.1-0.3,1.4-0.8c0.3-0.5,0.3-1.1-0.1-1.6l-1.6-2.4l1.1-2.7c0.2-0.5,0.1-1.2-0.3-1.6c-0.4-0.4-1-0.6-1.6-0.4
				l-2.8,0.8l-2.3-1.9c-0.5-0.4-1.1-0.5-1.6-0.2c-0.5,0.2-0.9,0.8-0.9,1.3l-0.1,2.9l-2.5,1.6c-0.5,0.3-0.8,0.9-0.7,1.5
				c0.1,0.6,0.4,1.1,1,1.3l2.8,1L88.2,90.7z"/>
			<path id="XMLID_104_" fill="#FACE09" d="M61.6,83.4l2.9-0.5l2.1,2.1c0.3,0.3,0.7,0.5,1.1,0.5c0.2,0,0.3,0,0.5-0.1
				c0.6-0.2,1-0.7,1-1.2l0.4-2.9l2.6-1.3c0.5-0.3,0.9-0.8,0.9-1.4s-0.3-1.1-0.9-1.4l-2.6-1.3L69.1,73c-0.1-0.6-0.5-1.1-1-1.2
				c-0.6-0.2-1.2,0-1.6,0.4l-2.1,2.1l-2.9-0.5c-0.6-0.1-1.2,0.1-1.5,0.6c-0.3,0.5-0.4,1.1-0.1,1.6l1.4,2.6l-1.4,2.6
				c-0.3,0.5-0.2,1.1,0.1,1.6C60.4,83.3,61,83.5,61.6,83.4z"/>
			<path id="XMLID_103_" fill="#FACE09" d="M37.3,90.9c0,0.6,0.4,1.1,0.9,1.3c0.2,0.1,0.4,0.1,0.6,0.1c0.3,0,0.7-0.1,1-0.4l2.3-1.9
				l2.8,0.8c0.6,0.2,1.2,0,1.6-0.5c0.4-0.4,0.5-1,0.3-1.6l-1.1-2.7l1.6-2.4c0.3-0.5,0.3-1.1,0.1-1.6c-0.3-0.5-0.8-0.8-1.4-0.8
				L43,81.6l-1.8-2.3c-0.4-0.5-0.9-0.7-1.5-0.5c-0.6,0.1-1,0.6-1.2,1.1l-0.7,2.9l-2.8,1c-0.6,0.2-0.9,0.7-1,1.3
				c-0.1,0.6,0.2,1.1,0.7,1.5l2.5,1.6L37.3,90.9z"/>
			<path id="XMLID_102_" fill="#FACE09" d="M18,108.1l2.9,0.1l1.6,2.5c0.3,0.4,0.8,0.7,1.3,0.7c0.1,0,0.1,0,0.2,0
				c0.6-0.1,1.1-0.4,1.3-1l1-2.8l2.9-0.7c0.6-0.1,1-0.6,1.1-1.2c0.1-0.6-0.1-1.2-0.6-1.5l-2.3-1.8l0.2-2.9c0-0.6-0.3-1.1-0.8-1.4
				c-0.5-0.3-1.1-0.3-1.6,0.1l-2.4,1.6L20,98.6c-0.5-0.2-1.2-0.1-1.6,0.3c-0.4,0.4-0.6,1-0.5,1.6l0.8,2.8l-1.9,2.3
				c-0.4,0.5-0.5,1.1-0.2,1.6S17.4,108,18,108.1z"/>
		</g>
		<g id="XMLID_96_">
			<path id="XMLID_100_" fill="#A9C5E7" d="M60.7,122.8v-11c0-3.4,2.7-6.1,6.1-6.1c3.4,0,6.1,2.7,6.1,6.1v11h7.4v-11
				c0-7.4-6-13.5-13.5-13.5c-7.4,0-13.5,6-13.5,13.5v11H60.7z"/>
			<path id="XMLID_97_" fill="#3E70B6" d="M81.9,118.6H51.6c-2.9,0-5.3,2.4-5.3,5.3v23.9c0,2.9,2.4,5.3,5.3,5.3h30.4
				c2.9,0,5.3-2.4,5.3-5.3v-23.9C87.2,121,84.8,118.6,81.9,118.6z M69,135.9v5.7c0,0.8-0.7,1.5-1.5,1.5h-1.4c-0.8,0-1.5-0.7-1.5-1.5
				v-5.7c-1.1-0.8-1.8-2-1.8-3.4c0-2.2,1.8-4.1,4.1-4.1s4.1,1.8,4.1,4.1C70.8,133.9,70.1,135.2,69,135.9z"/>
		</g>
	</g>
	<g id="XMLID_52_">
		<g id="XMLID_90_">
			<path id="XMLID_91_" fill="#A9C5E7" d="M115.1,47c-3.5-3.2-3.7-8.6-0.5-12.1c3.2-3.5,8.6-3.7,12.1-0.5c3.5,3.2,3.7,8.6,0.5,12.1
				C124,50,118.5,50.2,115.1,47z M123.5,37.8c-1.6-1.5-4.1-1.4-5.6,0.2c-1.5,1.6-1.4,4.1,0.2,5.6c1.6,1.5,4.1,1.4,5.6-0.2
				S125.1,39.3,123.5,37.8z"/>
		</g>
		<g id="XMLID_86_">
			<path id="XMLID_89_" fill="#A9C5E7" d="M101.7,64.2L99,61.7c-0.2-0.2-0.2-0.5,0-0.7l17-18.4l3.4,3.1l-17,18.4
				C102.2,64.4,101.9,64.4,101.7,64.2z"/>
		</g>
		<g id="XMLID_82_">
			<path id="XMLID_83_" fill="#A9C5E7" d="M106.7,55.5l-4.2-3.9c-0.2-0.2-0.2-0.5,0-0.7l2.5-2.7c0.2-0.2,0.5-0.2,0.7,0l4.2,3.9
				L106.7,55.5z"/>
		</g>
		<g id="XMLID_73_">
			<path id="XMLID_81_" fill="#A9C5E7" d="M102.5,60l-5.3-4.9c-0.2-0.2-0.2-0.5,0-0.7l2.5-2.7c0.2-0.2,0.5-0.2,0.7,0l5.3,4.9
				L102.5,60z"/>
		</g>
	</g>
	<g id="XMLID_19_">
		<path id="XMLID_45_" fill="#FACE09" d="M29.8,46.1c-2.7,1-4.8-0.8-4.8-2.7c-0.7,0.3-1.4,0.5-2.2,0.5c-2.7,0-4.9-2.2-4.9-4.9
			c0-0.3,0-0.7,0.1-1c-1.9-0.1-2.5-1.9-2.1-3.2c0-0.1,0-0.2,0-0.3C7.1,35,0,42.3,0,51.3c0,9.2,7.5,16.6,16.6,16.6
			s16.6-7.5,16.6-16.6c0-1-0.1-1.9-0.3-2.9C31.9,48.9,29.5,48.1,29.8,46.1z"/>
		<path id="XMLID_42_" fill="#233F90" d="M11.9,43.4c0,1-1.1,1.7-2,1.9c-0.7,0.2-1.4-1-1.5-1.9c-0.1-1,0.8-1.5,1.7-1.7
			C11.2,41.4,11.9,42.5,11.9,43.4z"/>
		<path id="XMLID_40_" fill="#FACE09" d="M20.9,37.6c-1.2-0.7-1.3-2.5-1-3.8c0.3-1,2.2-1,3.4-0.4c1.2,0.6,1.3,2,0.9,3.3
			C23.8,38.1,22,38.3,20.9,37.6z"/>
		<path id="XMLID_39_" fill="#FACE09" d="M29.4,37.8c-0.6-0.4-0.7-1.3-0.5-2c0.2-0.5,1.2-0.5,1.8-0.2c0.6,0.3,0.7,1.1,0.5,1.8
			C30.9,38,30,38.1,29.4,37.8z"/>
		<path id="XMLID_38_" fill="#FACE09" d="M25.5,39.7c0-0.5,0.7-0.9,1.2-0.9c0.4-0.1,0.7,0.6,0.7,1.1c0,0.5-0.5,0.8-1,0.9
			C25.8,40.8,25.5,40.2,25.5,39.7z"/>
		<path id="XMLID_37_" fill="#FACE09" d="M31.2,42.4c0.1-0.8,0.9-0.9,1.7-1c0.6-0.1,1.1,0.5,1.1,1.2c0,0.8-0.6,1.8-1.4,1.6
			C31.7,44,31.1,43.2,31.2,42.4z"/>
		<path id="XMLID_36_" fill="#FACE09" d="M34.9,45.4c0.4,0.2,0.4,0.7,0.3,1.2c-0.1,0.4-0.5,0.6-0.9,0.4c-0.5-0.1-0.9-0.7-0.7-1.1
			C33.8,45.4,34.4,45.2,34.9,45.4z"/>
		<path id="XMLID_35_" fill="#FACE09" d="M16.1,28.6c-0.4-0.4-0.3-0.9,0-1.5c0.2-0.4,1.4-0.6,1.9-0.2c0.5,0.4,0,1.1-0.3,1.6
			C17.4,29.2,16.6,29.1,16.1,28.6z"/>
		<path id="XMLID_34_" fill="#233F90" d="M17.3,48.5c0,1-0.2,1.7-1.2,1.9c-0.7,0.2-1.4-1-1.5-1.9c-0.1-1,0.8-1.5,1.7-1.7
			C17.4,46.4,17.3,47.5,17.3,48.5z"/>
		<path id="XMLID_33_" fill="#233F90" d="M6.6,49.8c0,1-0.2,1.1-1.1,1.3c-0.7,0.2-1.4-0.5-1.5-1.4c-0.1-1,0.8-1.5,1.7-1.7
			C6.8,47.8,6.6,48.9,6.6,49.8z"/>
		<path id="XMLID_32_" fill="#233F90" d="M21.8,54c0,1-0.6,1.3-1.6,1.5c-0.7,0.2-1.4-0.5-1.5-1.4c-0.1-1,0.6-0.8,1.5-1.1
			C21.2,52.9,21.8,53.1,21.8,54z"/>
		<path id="XMLID_31_" fill="#233F90" d="M9.9,57.4c0,1.2-0.8,1.7-2,1.9C7,59.6,6.1,58.8,6,57.6c-0.1-1.2,0.7-1,1.9-1.4
			C9.2,56,9.9,56.2,9.9,57.4z"/>
		<path id="XMLID_29_" fill="#233F90" d="M23.5,61.7c0,1.1,0.1,1.5-0.9,1.7c-0.8,0.2-1.6-0.5-1.7-1.5c-0.1-1.1,0.5-1.4,1.5-1.7
			C23.5,59.9,23.5,60.6,23.5,61.7z"/>
		<path id="XMLID_28_" fill="#233F90" d="M29.2,53.1c0,0.7-0.4,1-1.2,1c-0.5,0-0.5-0.3-0.5-1c-0.1-0.7,0.2-1,0.9-1.2
			C29.1,51.7,29.2,52.4,29.2,53.1z"/>
		<path id="XMLID_25_" fill="#233F90" d="M15.6,59.4c0,0.7-0.4,1-1.2,1c-0.5,0-0.5-0.3-0.5-1c-0.1-0.7,0.2-1,0.9-1.2
			C15.4,58,15.6,58.7,15.6,59.4z"/>
	</g>
	<g id="XMLID_16_">
		<circle id="XMLID_18_" fill="#A9C5E7" cx="67.1" cy="9.9" r="9.9"/>
		<path id="XMLID_17_" fill="#3E70B6" d="M72.7,21.5c-1.6,0.8-3.5,1.3-5.5,1.3c-2.1,0-4.1-0.6-5.8-1.5c-7.8,2-13.5,6.2-13.5,13.7
			c0,2,1.2,5.8,1.2,5.8s5.8,4.8,17.7,4.8s17.7-4.8,17.7-4.8s1.2-3.8,1.2-5.8C85.6,27.6,80.2,23.6,72.7,21.5z"/>
	</g>
</g>
</svg>
