<?xml version="1.0" encoding="utf-8"?>
<!-- Generator: Adobe Illustrator 19.0.0, SVG Export Plug-In . SVG Version: 6.00 Build 0)  -->
<svg version="1.2" baseProfile="tiny" id="Layer_1" xmlns="http://www.w3.org/2000/svg" xmlns:xlink="http://www.w3.org/1999/xlink"
	 x="0px" y="0px" width="119.8px" height="185px" viewBox="0 0 119.8 185" xml:space="preserve">
<g id="XMLID_346_">
	<g id="XMLID_319_">
		<g id="XMLID_327_">
			<path id="XMLID_349_" fill="#F0F3F6" d="M115.6,185H4.2c-2.3,0-4.2-1.9-4.2-4.2V34.3c0-2.3,1.9-4.2,4.2-4.2h111.5
				c2.3,0,4.2,1.9,4.2,4.2v146.5C119.8,183.1,117.9,185,115.6,185z"/>
		</g>
		<path id="XMLID_320_" fill="#3E70B6" d="M87.7,22.8H74.2c-0.6-6-6.8-10.8-14.3-10.8s-13.7,4.7-14.3,10.8H32.1
			c-0.9,0-1.5,0.7-1.5,1.5v11.5c0,0.9,0.7,1.5,1.5,1.5h55.6c0.9,0,1.5-0.7,1.5-1.5V24.3C89.2,23.5,88.5,22.8,87.7,22.8z M59.9,17.8
			c3.6,0,6.5,2.2,7.1,5H52.8C53.4,20,56.3,17.8,59.9,17.8z"/>
	</g>
	<g id="XMLID_318_">
		<g id="XMLID_328_">
			<circle id="XMLID_331_" fill="#FACE09" cx="30" cy="74.2" r="12.7"/>
			<g id="XMLID_329_">
				<path id="XMLID_330_" fill="#FFFFFF" d="M28.8,80l-4.5-4.3c-0.7-0.7-0.8-1.8-0.1-2.6c0.7-0.7,1.8-0.8,2.6-0.1l2.2,2.1l4.8-3.9
					c0.8-0.6,1.9-0.5,2.6,0.3c0.6,0.8,0.5,1.9-0.3,2.6L28.8,80z"/>
			</g>
		</g>
		<g id="XMLID_255_">
			<g id="XMLID_315_">
				<path id="XMLID_317_" fill="#212120" d="M99.9,77.9H53.6c-1.7,0-3.1-1.4-3.1-3.1v-1.2c0-1.7,1.4-3.1,3.1-3.1h46.3
					c1.7,0,3.1,1.4,3.1,3.1v1.2C103,76.5,101.6,77.9,99.9,77.9z"/>
			</g>
		</g>
		<g id="XMLID_335_">
			<circle id="XMLID_338_" fill="#FACE09" cx="30" cy="108.2" r="12.7"/>
			<g id="XMLID_336_">
				<path id="XMLID_337_" fill="#FFFFFF" d="M28.8,114l-4.5-4.3c-0.7-0.7-0.8-1.8-0.1-2.6c0.7-0.7,1.8-0.8,2.6-0.1l2.2,2.1l4.8-3.9
					c0.8-0.6,1.9-0.5,2.6,0.3c0.6,0.8,0.5,1.9-0.3,2.6L28.8,114z"/>
			</g>
		</g>
		<g id="XMLID_332_">
			<g id="XMLID_333_">
				<path id="XMLID_334_" fill="#212120" d="M99.9,111.9H53.6c-1.7,0-3.1-1.4-3.1-3.1v-1.2c0-1.7,1.4-3.1,3.1-3.1h46.3
					c1.7,0,3.1,1.4,3.1,3.1v1.2C103,110.5,101.6,111.9,99.9,111.9z"/>
			</g>
		</g>
		<g id="XMLID_342_">
			<circle id="XMLID_345_" fill="#FACE09" cx="30" cy="142.2" r="12.7"/>
			<g id="XMLID_343_">
				<path id="XMLID_344_" fill="#FFFFFF" d="M28.8,148l-4.5-4.3c-0.7-0.7-0.8-1.8-0.1-2.6c0.7-0.7,1.8-0.8,2.6-0.1l2.2,2.1l4.8-3.9
					c0.8-0.6,1.9-0.5,2.6,0.3c0.6,0.8,0.5,1.9-0.3,2.6L28.8,148z"/>
			</g>
		</g>
		<g id="XMLID_339_">
			<g id="XMLID_340_">
				<path id="XMLID_341_" fill="#212120" d="M99.9,145.9H53.6c-1.7,0-3.1-1.4-3.1-3.1v-1.2c0-1.7,1.4-3.1,3.1-3.1h46.3
					c1.7,0,3.1,1.4,3.1,3.1v1.2C103,144.5,101.6,145.9,99.9,145.9z"/>
			</g>
		</g>
	</g>
</g>
</svg>
