<?xml version="1.0" encoding="utf-8"?>
<!-- Generator: Adobe Illustrator 19.0.0, SVG Export Plug-In . SVG Version: 6.00 Build 0)  -->
<svg version="1.2" baseProfile="tiny" id="Layer_1" xmlns="http://www.w3.org/2000/svg" xmlns:xlink="http://www.w3.org/1999/xlink"
	 x="0px" y="0px" width="114.7px" height="185px" viewBox="0 0 114.7 185" xml:space="preserve">
<g id="XMLID_370_">
	<g id="XMLID_303_">
		<path id="XMLID_309_" fill="#F0F3F6" d="M67.5,25.1H5c-2.8,0-5,2.2-5,5V180c0,2.8,2.2,5,5,5h104.7c2.8,0,5-2.2,5-5V74L67.5,25.1z"
			/>
		<path id="XMLID_304_" fill="#3E70B6" d="M72.5,74h42.1l-47.1-49v44C67.5,71.8,69.7,74,72.5,74z"/>
	</g>
	<g id="XMLID_369_">
		<g id="XMLID_366_" display="none">
			<g id="XMLID_367_" display="inline">
				<path id="XMLID_368_" fill="#212120" d="M95.6,68.5H62.9c-2,0-3.7-1.7-3.7-3.7v0c0-2,1.7-3.7,3.7-3.7h32.8c2,0,3.7,1.7,3.7,3.7
					v0C99.3,66.8,97.7,68.5,95.6,68.5z"/>
			</g>
		</g>
		<g id="XMLID_363_" display="none">
			<g id="XMLID_364_" display="inline">
				<path id="XMLID_365_" fill="#212120" d="M82.2,82.8H62.5c-1.8,0-3.3-1.5-3.3-3.3v-0.7c0-1.8,1.5-3.3,3.3-3.3h19.7
					c1.8,0,3.3,1.5,3.3,3.3v0.7C85.5,81.3,84,82.8,82.2,82.8z"/>
			</g>
		</g>
		<g id="XMLID_360_">
			<g id="XMLID_361_">
				<path id="XMLID_362_" fill="#212120" d="M89.2,108.5H21.7c-2,0-3.7-1.7-3.7-3.7v0c0-2,1.7-3.7,3.7-3.7h67.5c2,0,3.7,1.7,3.7,3.7
					v0C92.9,106.9,91.2,108.5,89.2,108.5z"/>
			</g>
		</g>
		<g id="XMLID_357_">
			<g id="XMLID_358_">
				<path id="XMLID_359_" fill="#212120" d="M78,123.8H21.4c-1.9,0-3.4-1.5-3.4-3.4v-0.6c0-1.9,1.5-3.4,3.4-3.4H78
					c1.9,0,3.4,1.5,3.4,3.4v0.6C81.4,122.3,79.9,123.8,78,123.8z"/>
			</g>
		</g>
		<g id="XMLID_354_">
			<g id="XMLID_355_">
				<path id="XMLID_356_" fill="#212120" d="M89.2,139.1H21.7c-2,0-3.7-1.7-3.7-3.7v0c0-2,1.7-3.7,3.7-3.7h67.5c2,0,3.7,1.7,3.7,3.7
					v0C92.9,137.5,91.2,139.1,89.2,139.1z"/>
			</g>
		</g>
		<g id="XMLID_351_">
			<g id="XMLID_352_">
				<path id="XMLID_353_" fill="#212120" d="M65.2,154.4H21c-1.7,0-3-1.4-3-3v-1.3c0-1.7,1.4-3,3-3h44.1c1.7,0,3,1.4,3,3v1.3
					C68.2,153.1,66.8,154.4,65.2,154.4z"/>
			</g>
		</g>
		<g id="XMLID_347_">
			<circle id="XMLID_350_" fill="#A9C5E7" cx="36" cy="65.4" r="7"/>
			<path id="XMLID_348_" fill="#3E70B6" d="M40,73.6c-1.1,0.6-2.5,0.9-3.9,0.9c-1.5,0-2.9-0.4-4.1-1.1c-5.6,1.5-9.6,4.4-9.6,9.8
				c0,1.5,0.8,4.1,0.8,4.1s4.1,3.4,12.6,3.4s12.6-3.4,12.6-3.4s0.8-2.7,0.8-4.1C49.2,78,45.3,75.2,40,73.6z"/>
		</g>
	</g>
</g>
</svg>
