<?xml version="1.0" encoding="utf-8"?>
<!-- Generator: Adobe Illustrator 19.0.0, SVG Export Plug-In . SVG Version: 6.00 Build 0)  -->
<svg version="1.2" baseProfile="tiny" id="Layer_1" xmlns="http://www.w3.org/2000/svg" xmlns:xlink="http://www.w3.org/1999/xlink"
	 x="0px" y="0px" width="85.8px" height="185px" viewBox="0 0 85.8 185" xml:space="preserve">
<g id="XMLID_392_">
	<path id="XMLID_411_" fill="#3E70B6" d="M44.8,105.9H41c-2.2,0-3.9-1.8-3.9-3.9v-92C37.1,7.8,38.8,6,41,6h3.7
		c2.2,0,3.9,1.8,3.9,3.9v92C48.7,104.1,46.9,105.9,44.8,105.9z"/>
	<path id="XMLID_410_" fill="#FACE09" d="M49.2,115.8H36.6c-2.2,0-4-1.8-4-4v-10.3c0-2.2,1.8-4,4-4h12.7c2.2,0,4,1.8,4,4v10.3
		C53.2,114,51.4,115.8,49.2,115.8z"/>
	<path id="XMLID_408_" fill="#D9B227" d="M70,122.5H15.7c-0.9,0-1.6-0.7-1.3-1.4l5.4-11.2c0.4-0.8,1.4-1.4,2.5-1.4h40.9
		c1.1,0,2.1,0.5,2.5,1.4l5.4,11.2C71.6,121.8,71,122.5,70,122.5z"/>
	<g id="XMLID_395_">
		<path id="XMLID_407_" fill="#3E70B6" d="M84.2,185H1.6c-1,0-1.7-0.7-1.6-1.4L11.1,126h63.5l11.1,57.6
			C85.9,184.3,85.2,185,84.2,185z"/>
		<g id="XMLID_396_">
			<g id="XMLID_405_">
				<g id="XMLID_406_">
					<path id="XMLID_417_" fill="#A9C5E7" d="M18.4,185h-4v-22.1c0-0.6,0.4-1,1-1h2c0.6,0,1,0.4,1,1V185z"/>
				</g>
			</g>
			<g id="XMLID_403_">
				<g id="XMLID_404_">
					<path id="XMLID_416_" fill="#A9C5E7" d="M31.6,185h-4v-39.7c0-0.6,0.4-1,1-1h2c0.6,0,1,0.4,1,1V185z"/>
				</g>
			</g>
			<g id="XMLID_401_">
				<g id="XMLID_402_">
					<path id="XMLID_415_" fill="#A9C5E7" d="M44.9,185h-4v-22.1c0-0.6,0.4-1,1-1h2c0.6,0,1,0.4,1,1V185z"/>
				</g>
			</g>
			<g id="XMLID_399_">
				<g id="XMLID_400_">
					<path id="XMLID_414_" fill="#A9C5E7" d="M58.2,185h-4v-39.7c0-0.6,0.4-1,1-1h2c0.6,0,1,0.4,1,1V185z"/>
				</g>
			</g>
			<g id="XMLID_397_">
				<g id="XMLID_398_">
					<path id="XMLID_413_" fill="#A9C5E7" d="M71.4,185h-4v-22.1c0-0.6,0.4-1,1-1h2c0.6,0,1,0.4,1,1V185z"/>
				</g>
			</g>
		</g>
	</g>
	<path id="XMLID_394_" fill="#FACE09" d="M8.6,120.8h68.6c2.2,0,4,1.8,4,4v5.6c0,2.2-1.8,4-4,4H8.6c-2.2,0-4-1.8-4-4v-5.6
		C4.6,122.6,6.4,120.8,8.6,120.8z"/>
</g>
</svg>
